<svg width="1123" height="669" viewBox="0 0 1123 669" fill="none" xmlns="http://www.w3.org/2000/svg">
<path d="M1107.36 334.379C1107.36 350.85 862.824 653.757 561.178 653.757C259.532 653.757 15 374.723 15 334.379C15 294.034 259.532 15 561.178 15C862.824 15 1094.85 301.136 1107.36 334.379Z" fill="white" stroke="url(#paint0_linear_72_2)" stroke-width="30"/>
<g filter="url(#filter0_i_72_2)">
<path d="M561.179 162.95C658.501 162.95 737.397 239.701 737.397 334.378C737.397 429.056 658.502 505.808 561.179 505.808C463.856 505.808 384.96 429.056 384.96 334.378C384.96 239.701 463.856 162.95 561.179 162.95ZM532.933 300.565L524.769 289.678L503.99 342.185L500.273 345.321L490.438 339.272L459.09 414.873H663.268L645.729 369.815L624.63 339.272L617.907 345.321L565.29 213.474L532.933 300.565Z" fill="url(#paint1_radial_72_2)"/>
</g>
<defs>
<filter id="filter0_i_72_2" x="384.96" y="162.95" width="352.438" height="346.858" filterUnits="userSpaceOnUse" color-interpolation-filters="sRGB">
<feFlood flood-opacity="0" result="BackgroundImageFix"/>
<feBlend mode="normal" in="SourceGraphic" in2="BackgroundImageFix" result="shape"/>
<feColorMatrix in="SourceAlpha" type="matrix" values="0 0 0 0 0 0 0 0 0 0 0 0 0 0 0 0 0 0 127 0" result="hardAlpha"/>
<feOffset dy="30"/>
<feGaussianBlur stdDeviation="2"/>
<feComposite in2="hardAlpha" operator="arithmetic" k2="-1" k3="1"/>
<feColorMatrix type="matrix" values="0 0 0 0 0 0 0 0 0 0 0 0 0 0 0 0 0 0 0.25 0"/>
<feBlend mode="normal" in2="shape" result="effect1_innerShadow_72_2"/>
</filter>
<linearGradient id="paint0_linear_72_2" x1="561.178" y1="15" x2="561.178" y2="653.757" gradientUnits="userSpaceOnUse">
<stop stop-color="#99B45F"/>
<stop offset="1" stop-color="#5D6E37"/>
</linearGradient>
<radialGradient id="paint1_radial_72_2" cx="0" cy="0" r="1" gradientUnits="userSpaceOnUse" gradientTransform="translate(561.179 334.379) rotate(90) scale(171.429 176.219)">
<stop stop-color="#98B25E"/>
<stop offset="1" stop-color="#61733A"/>
</radialGradient>
</defs>
</svg>
