<svg width="1131" height="713" viewBox="0 0 1131 713" fill="none" xmlns="http://www.w3.org/2000/svg">
<g filter="url(#filter0_d_87_66)">
<path d="M1111.36 334.379C1111.36 350.85 866.824 653.757 565.178 653.757C263.532 653.757 19 374.723 19 334.379C19 294.034 263.532 15 565.178 15C866.824 15 1098.85 301.136 1111.36 334.379Z" fill="white"/>
<path d="M1111.36 334.379C1111.36 350.85 866.824 653.757 565.178 653.757C263.532 653.757 19 374.723 19 334.379C19 294.034 263.532 15 565.178 15C866.824 15 1098.85 301.136 1111.36 334.379Z" stroke="url(#paint0_linear_87_66)" stroke-width="30"/>
</g>
<g filter="url(#filter1_i_87_66)">
<path d="M565.179 162.949C662.501 162.949 741.397 239.7 741.397 334.378C741.397 429.056 662.502 505.808 565.179 505.808C467.856 505.808 388.96 429.056 388.96 334.378C388.96 239.7 467.856 162.949 565.179 162.949ZM536.933 300.564L528.769 289.678L507.99 342.185L504.273 345.32L494.438 339.271L463.09 414.872H667.268L649.729 369.814L628.63 339.271L621.907 345.32L569.29 213.474L536.933 300.564Z" fill="url(#paint1_radial_87_66)"/>
</g>
<defs>
<filter id="filter0_d_87_66" x="0" y="0" width="1130.36" height="712.758" filterUnits="userSpaceOnUse" color-interpolation-filters="sRGB">
<feFlood flood-opacity="0" result="BackgroundImageFix"/>
<feColorMatrix in="SourceAlpha" type="matrix" values="0 0 0 0 0 0 0 0 0 0 0 0 0 0 0 0 0 0 127 0" result="hardAlpha"/>
<feOffset dy="40"/>
<feGaussianBlur stdDeviation="0.8"/>
<feComposite in2="hardAlpha" operator="out"/>
<feColorMatrix type="matrix" values="0 0 0 0 0 0 0 0 0 0 0 0 0 0 0 0 0 0 0.25 0"/>
<feBlend mode="normal" in2="BackgroundImageFix" result="effect1_dropShadow_87_66"/>
<feBlend mode="normal" in="SourceGraphic" in2="effect1_dropShadow_87_66" result="shape"/>
</filter>
<filter id="filter1_i_87_66" x="388.96" y="162.949" width="352.438" height="346.858" filterUnits="userSpaceOnUse" color-interpolation-filters="sRGB">
<feFlood flood-opacity="0" result="BackgroundImageFix"/>
<feBlend mode="normal" in="SourceGraphic" in2="BackgroundImageFix" result="shape"/>
<feColorMatrix in="SourceAlpha" type="matrix" values="0 0 0 0 0 0 0 0 0 0 0 0 0 0 0 0 0 0 127 0" result="hardAlpha"/>
<feOffset dy="30"/>
<feGaussianBlur stdDeviation="0.6"/>
<feComposite in2="hardAlpha" operator="arithmetic" k2="-1" k3="1"/>
<feColorMatrix type="matrix" values="0 0 0 0 0 0 0 0 0 0 0 0 0 0 0 0 0 0 0.25 0"/>
<feBlend mode="normal" in2="shape" result="effect1_innerShadow_87_66"/>
</filter>
<linearGradient id="paint0_linear_87_66" x1="565.178" y1="15" x2="565.178" y2="653.757" gradientUnits="userSpaceOnUse">
<stop stop-color="#99B45F"/>
<stop offset="1" stop-color="#5D6E37"/>
</linearGradient>
<radialGradient id="paint1_radial_87_66" cx="0" cy="0" r="1" gradientUnits="userSpaceOnUse" gradientTransform="translate(565.179 334.378) rotate(90) scale(171.429 176.219)">
<stop stop-color="#98B25E"/>
<stop offset="1" stop-color="#61733A"/>
</radialGradient>
</defs>
</svg>
