<svg width="207" height="134" viewBox="0 0 207 134" fill="none" xmlns="http://www.w3.org/2000/svg">
<g filter="url(#filter0_d_87_75)">
<path d="M192 56.7505C192 59.4195 152.377 108.501 103.5 108.501C54.6228 108.501 15 63.2877 15 56.7505C15 50.2133 54.6228 5 103.5 5C152.377 5 189.973 51.3641 192 56.7505Z" fill="white" stroke="url(#paint0_linear_87_75)" stroke-width="10"/>
<g filter="url(#filter1_i_87_75)">
<path d="M103.5 28.9727C119.27 28.9727 132.054 41.4099 132.054 56.751C132.054 72.0919 119.27 84.5283 103.5 84.5283C87.7307 84.5282 74.9467 72.0919 74.9465 56.751C74.9465 41.41 87.7306 28.9728 103.5 28.9727ZM98.9231 51.2715L97.6008 49.5078L94.2336 58.0156L93.6321 58.5234L92.0383 57.543L86.9583 69.793H120.042L117.2 62.4922L113.781 57.543L112.693 58.5234L104.166 37.1592L98.9231 51.2715Z" fill="url(#paint1_radial_87_75)"/>
</g>
</g>
<defs>
<filter id="filter0_d_87_75" x="0" y="0" width="207" height="133.501" filterUnits="userSpaceOnUse" color-interpolation-filters="sRGB">
<feFlood flood-opacity="0" result="BackgroundImageFix"/>
<feColorMatrix in="SourceAlpha" type="matrix" values="0 0 0 0 0 0 0 0 0 0 0 0 0 0 0 0 0 0 127 0" result="hardAlpha"/>
<feOffset dy="10"/>
<feGaussianBlur stdDeviation="1.2"/>
<feComposite in2="hardAlpha" operator="out"/>
<feColorMatrix type="matrix" values="0 0 0 0 0 0 0 0 0 0 0 0 0 0 0 0 0 0 0.25 0"/>
<feBlend mode="normal" in2="BackgroundImageFix" result="effect1_dropShadow_87_75"/>
<feBlend mode="normal" in="SourceGraphic" in2="effect1_dropShadow_87_75" result="shape"/>
</filter>
<filter id="filter1_i_87_75" x="74.9465" y="28.9727" width="57.1074" height="59.5557" filterUnits="userSpaceOnUse" color-interpolation-filters="sRGB">
<feFlood flood-opacity="0" result="BackgroundImageFix"/>
<feBlend mode="normal" in="SourceGraphic" in2="BackgroundImageFix" result="shape"/>
<feColorMatrix in="SourceAlpha" type="matrix" values="0 0 0 0 0 0 0 0 0 0 0 0 0 0 0 0 0 0 127 0" result="hardAlpha"/>
<feOffset dy="30"/>
<feGaussianBlur stdDeviation="0.5"/>
<feComposite in2="hardAlpha" operator="arithmetic" k2="-1" k3="1"/>
<feColorMatrix type="matrix" values="0 0 0 0 0 0 0 0 0 0 0 0 0 0 0 0 0 0 0.25 0"/>
<feBlend mode="normal" in2="shape" result="effect1_innerShadow_87_75"/>
</filter>
<linearGradient id="paint0_linear_87_75" x1="103.5" y1="5" x2="103.5" y2="108.501" gradientUnits="userSpaceOnUse">
<stop stop-color="#99B45F"/>
<stop offset="1" stop-color="#5D6E37"/>
</linearGradient>
<radialGradient id="paint1_radial_87_75" cx="0" cy="0" r="1" gradientUnits="userSpaceOnUse" gradientTransform="translate(103.5 56.7505) rotate(90) scale(27.7778 28.5537)">
<stop stop-color="#98B25E"/>
<stop offset="1" stop-color="#61733A"/>
</radialGradient>
</defs>
</svg>
